<mxfile host="app.diagrams.net" agent="Mozilla/5.0 (X11; Linux x86_64) AppleWebKit/537.36 (KHTML, like Gecko) Chrome/132.0.0.0 Safari/537.36 Edg/132.0.0.0" version="26.0.9">
  <diagram name="PÃ¡gina-1" id="Ebh7_Z0vxYLUfH_Ub__D">
    <mxGraphModel dx="1880" dy="3484" grid="1" gridSize="10" guides="1" tooltips="1" connect="1" arrows="1" fold="1" page="1" pageScale="1" pageWidth="827" pageHeight="1169" math="0" shadow="0">
      <root>
        <mxCell id="0" />
        <mxCell id="1" parent="0" />
        <mxCell id="sMkJowBJEs8iN2L6A-MO-190" value="" style="whiteSpace=wrap;html=1;aspect=fixed;movable=0;resizable=0;rotatable=0;deletable=0;editable=0;locked=1;connectable=0;" vertex="1" parent="1">
          <mxGeometry y="-1170" width="1060" height="1060" as="geometry" />
        </mxCell>
        <mxCell id="sMkJowBJEs8iN2L6A-MO-41" value="Private subnet" style="points=[[0,0],[0.25,0],[0.5,0],[0.75,0],[1,0],[1,0.25],[1,0.5],[1,0.75],[1,1],[0.75,1],[0.5,1],[0.25,1],[0,1],[0,0.75],[0,0.5],[0,0.25]];outlineConnect=0;gradientColor=none;html=1;whiteSpace=wrap;fontSize=12;fontStyle=0;container=0;pointerEvents=0;collapsible=0;recursiveResize=0;shape=mxgraph.aws4.group;grIcon=mxgraph.aws4.group_security_group;grStroke=0;strokeColor=#00A4A6;fillColor=#E6F6F7;verticalAlign=top;align=left;spacingLeft=30;fontColor=#147EBA;dashed=0;" vertex="1" parent="1">
          <mxGeometry x="197" y="-747" width="310" height="520" as="geometry" />
        </mxCell>
        <mxCell id="sMkJowBJEs8iN2L6A-MO-57" value="VPC" style="sketch=0;outlineConnect=0;html=1;whiteSpace=wrap;fontSize=12;fontStyle=0;shape=mxgraph.aws4.group;grIcon=mxgraph.aws4.group_vpc;strokeColor=#009900;fillColor=none;verticalAlign=top;align=left;spacingLeft=30;dashed=0;movable=1;resizable=1;rotatable=1;deletable=1;editable=1;locked=0;connectable=1;" vertex="1" parent="1">
          <mxGeometry x="77" y="-947" width="910" height="800" as="geometry" />
        </mxCell>
        <mxCell id="sMkJowBJEs8iN2L6A-MO-36" value="Auto Scaling group" style="points=[[0,0],[0.25,0],[0.5,0],[0.75,0],[1,0],[1,0.25],[1,0.5],[1,0.75],[1,1],[0.75,1],[0.5,1],[0.25,1],[0,1],[0,0.75],[0,0.5],[0,0.25]];outlineConnect=0;gradientColor=none;html=1;whiteSpace=wrap;fontSize=12;fontStyle=0;container=1;pointerEvents=0;collapsible=0;recursiveResize=0;shape=mxgraph.aws4.groupCenter;grIcon=mxgraph.aws4.group_auto_scaling_group;grStroke=1;strokeColor=#D86613;fillColor=none;verticalAlign=top;align=center;fontColor=#D86613;dashed=1;spacingTop=25;" vertex="1" parent="1">
          <mxGeometry x="217" y="-677" width="270" height="430" as="geometry" />
        </mxCell>
        <mxCell id="sMkJowBJEs8iN2L6A-MO-151" style="edgeStyle=orthogonalEdgeStyle;rounded=0;orthogonalLoop=1;jettySize=auto;html=1;exitX=1;exitY=0.5;exitDx=0;exitDy=0;exitPerimeter=0;" edge="1" parent="sMkJowBJEs8iN2L6A-MO-36" source="sMkJowBJEs8iN2L6A-MO-17">
          <mxGeometry relative="1" as="geometry">
            <mxPoint x="130" y="150" as="targetPoint" />
          </mxGeometry>
        </mxCell>
        <mxCell id="sMkJowBJEs8iN2L6A-MO-17" value="Node" style="sketch=0;points=[[0,0,0],[0.25,0,0],[0.5,0,0],[0.75,0,0],[1,0,0],[0,1,0],[0.25,1,0],[0.5,1,0],[0.75,1,0],[1,1,0],[0,0.25,0],[0,0.5,0],[0,0.75,0],[1,0.25,0],[1,0.5,0],[1,0.75,0]];outlineConnect=0;fontColor=#232F3E;fillColor=#ED7100;strokeColor=#ffffff;dashed=0;verticalLabelPosition=bottom;verticalAlign=top;align=center;html=1;fontSize=12;fontStyle=0;aspect=fixed;shape=mxgraph.aws4.resourceIcon;resIcon=mxgraph.aws4.ec2;" vertex="1" parent="sMkJowBJEs8iN2L6A-MO-36">
          <mxGeometry x="49" y="70" width="59" height="59" as="geometry" />
        </mxCell>
        <mxCell id="sMkJowBJEs8iN2L6A-MO-152" style="edgeStyle=orthogonalEdgeStyle;rounded=0;orthogonalLoop=1;jettySize=auto;html=1;" edge="1" parent="sMkJowBJEs8iN2L6A-MO-36" source="sMkJowBJEs8iN2L6A-MO-150">
          <mxGeometry relative="1" as="geometry">
            <mxPoint x="130" y="150" as="targetPoint" />
          </mxGeometry>
        </mxCell>
        <mxCell id="sMkJowBJEs8iN2L6A-MO-150" value="Node" style="sketch=0;points=[[0,0,0],[0.25,0,0],[0.5,0,0],[0.75,0,0],[1,0,0],[0,1,0],[0.25,1,0],[0.5,1,0],[0.75,1,0],[1,1,0],[0,0.25,0],[0,0.5,0],[0,0.75,0],[1,0.25,0],[1,0.5,0],[1,0.75,0]];outlineConnect=0;fontColor=#232F3E;fillColor=#ED7100;strokeColor=#ffffff;dashed=0;verticalLabelPosition=bottom;verticalAlign=top;align=center;html=1;fontSize=12;fontStyle=0;aspect=fixed;shape=mxgraph.aws4.resourceIcon;resIcon=mxgraph.aws4.ec2;" vertex="1" parent="sMkJowBJEs8iN2L6A-MO-36">
          <mxGeometry x="154.5" y="70" width="59" height="59" as="geometry" />
        </mxCell>
        <mxCell id="sMkJowBJEs8iN2L6A-MO-153" value="Private subnet" style="points=[[0,0],[0.25,0],[0.5,0],[0.75,0],[1,0],[1,0.25],[1,0.5],[1,0.75],[1,1],[0.75,1],[0.5,1],[0.25,1],[0,1],[0,0.75],[0,0.5],[0,0.25]];outlineConnect=0;gradientColor=none;html=1;whiteSpace=wrap;fontSize=12;fontStyle=0;container=0;pointerEvents=0;collapsible=0;recursiveResize=0;shape=mxgraph.aws4.group;grIcon=mxgraph.aws4.group_security_group;grStroke=0;strokeColor=#00A4A6;fillColor=#E6F6F7;verticalAlign=top;align=left;spacingLeft=30;fontColor=#147EBA;dashed=0;" vertex="1" parent="1">
          <mxGeometry x="587" y="-747" width="310" height="520" as="geometry" />
        </mxCell>
        <mxCell id="sMkJowBJEs8iN2L6A-MO-71" value="" style="container=1;collapsible=0;expand=0;recursiveResize=0;html=1;whiteSpace=wrap;strokeColor=#198038;fillColor=none;strokeWidth=1" vertex="1" parent="1">
          <mxGeometry x="242.5" y="-522.5" width="220" height="265.5" as="geometry" />
        </mxCell>
        <mxCell id="sMkJowBJEs8iN2L6A-MO-72" value="Kubernetes Service" style="shape=rect;fillColor=none;aspect=fixed;resizable=0;labelPosition=right;verticalLabelPosition=middle;align=left;verticalAlign=middle;strokeColor=none;part=1;spacingLeft=5;fontSize=14;" vertex="1" parent="sMkJowBJEs8iN2L6A-MO-71">
          <mxGeometry width="48" height="48" relative="1" as="geometry" />
        </mxCell>
        <mxCell id="sMkJowBJEs8iN2L6A-MO-73" value="" style="fillColor=#198038;shape=mxgraph.ibm_cloud.ibm-cloud--kubernetes-service;strokeColor=none;dashed=0;outlineConnect=0;html=1;labelPosition=center;verticalLabelPosition=bottom;verticalAlign=top;part=1;movable=0;resizable=0;rotatable=0;" vertex="1" parent="sMkJowBJEs8iN2L6A-MO-72">
          <mxGeometry width="24" height="24" relative="1" as="geometry">
            <mxPoint x="12" y="12" as="offset" />
          </mxGeometry>
        </mxCell>
        <mxCell id="sMkJowBJEs8iN2L6A-MO-74" value="" style="shape=rect;fillColor=#198038;aspect=fixed;resizable=0;labelPosition=right;verticalLabelPosition=middle;align=left;verticalAlign=middle;strokeColor=none;part=1;spacingLeft=5;fontSize=14;" vertex="1" parent="sMkJowBJEs8iN2L6A-MO-71">
          <mxGeometry width="4" height="48" relative="1" as="geometry" />
        </mxCell>
        <mxCell id="sMkJowBJEs8iN2L6A-MO-69" value="" style="aspect=fixed;sketch=0;html=1;dashed=0;whitespace=wrap;verticalLabelPosition=bottom;verticalAlign=top;fillColor=#2875E2;strokeColor=#ffffff;points=[[0.005,0.63,0],[0.1,0.2,0],[0.9,0.2,0],[0.5,0,0],[0.995,0.63,0],[0.72,0.99,0],[0.5,1,0],[0.28,0.99,0]];shape=mxgraph.kubernetes.icon2;kubernetesLabel=1;prIcon=pod" vertex="1" parent="sMkJowBJEs8iN2L6A-MO-71">
          <mxGeometry x="25" y="212.5" width="50" height="48" as="geometry" />
        </mxCell>
        <mxCell id="sMkJowBJEs8iN2L6A-MO-75" value="" style="aspect=fixed;sketch=0;html=1;dashed=0;whitespace=wrap;verticalLabelPosition=bottom;verticalAlign=top;fillColor=#2875E2;strokeColor=#ffffff;points=[[0.005,0.63,0],[0.1,0.2,0],[0.9,0.2,0],[0.5,0,0],[0.995,0.63,0],[0.72,0.99,0],[0.5,1,0],[0.28,0.99,0]];shape=mxgraph.kubernetes.icon2;kubernetesLabel=1;prIcon=pod" vertex="1" parent="sMkJowBJEs8iN2L6A-MO-71">
          <mxGeometry x="85.5" y="212.5" width="50" height="48" as="geometry" />
        </mxCell>
        <mxCell id="sMkJowBJEs8iN2L6A-MO-76" value="" style="aspect=fixed;sketch=0;html=1;dashed=0;whitespace=wrap;verticalLabelPosition=bottom;verticalAlign=top;fillColor=#2875E2;strokeColor=#ffffff;points=[[0.005,0.63,0],[0.1,0.2,0],[0.9,0.2,0],[0.5,0,0],[0.995,0.63,0],[0.72,0.99,0],[0.5,1,0],[0.28,0.99,0]];shape=mxgraph.kubernetes.icon2;kubernetesLabel=1;prIcon=pod" vertex="1" parent="sMkJowBJEs8iN2L6A-MO-71">
          <mxGeometry x="147" y="212.5" width="50" height="48" as="geometry" />
        </mxCell>
        <mxCell id="sMkJowBJEs8iN2L6A-MO-77" value="" style="aspect=fixed;sketch=0;html=1;dashed=0;whitespace=wrap;verticalLabelPosition=bottom;verticalAlign=top;fillColor=#2875E2;strokeColor=#ffffff;points=[[0.005,0.63,0],[0.1,0.2,0],[0.9,0.2,0],[0.5,0,0],[0.995,0.63,0],[0.72,0.99,0],[0.5,1,0],[0.28,0.99,0]];shape=mxgraph.kubernetes.icon2;kubernetesLabel=1;prIcon=svc" vertex="1" parent="sMkJowBJEs8iN2L6A-MO-71">
          <mxGeometry x="85" y="132.5" width="50" height="48" as="geometry" />
        </mxCell>
        <mxCell id="sMkJowBJEs8iN2L6A-MO-81" style="edgeStyle=orthogonalEdgeStyle;rounded=0;orthogonalLoop=1;jettySize=auto;html=1;exitX=0.5;exitY=0;exitDx=0;exitDy=0;exitPerimeter=0;entryX=0.5;entryY=1;entryDx=0;entryDy=0;entryPerimeter=0;" edge="1" parent="sMkJowBJEs8iN2L6A-MO-71">
          <mxGeometry relative="1" as="geometry">
            <mxPoint x="110.50000000000011" y="212.5" as="sourcePoint" />
            <mxPoint x="110" y="180.5" as="targetPoint" />
          </mxGeometry>
        </mxCell>
        <mxCell id="sMkJowBJEs8iN2L6A-MO-83" style="edgeStyle=orthogonalEdgeStyle;rounded=0;orthogonalLoop=1;jettySize=auto;html=1;exitX=0.5;exitY=0;exitDx=0;exitDy=0;exitPerimeter=0;entryX=0.5;entryY=1;entryDx=0;entryDy=0;entryPerimeter=0;" edge="1" parent="sMkJowBJEs8iN2L6A-MO-71" source="sMkJowBJEs8iN2L6A-MO-69" target="sMkJowBJEs8iN2L6A-MO-77">
          <mxGeometry relative="1" as="geometry">
            <Array as="points">
              <mxPoint x="50" y="202.5" />
              <mxPoint x="110" y="202.5" />
            </Array>
          </mxGeometry>
        </mxCell>
        <mxCell id="sMkJowBJEs8iN2L6A-MO-87" style="edgeStyle=orthogonalEdgeStyle;rounded=0;orthogonalLoop=1;jettySize=auto;html=1;exitX=0.5;exitY=0;exitDx=0;exitDy=0;exitPerimeter=0;entryX=0.5;entryY=1;entryDx=0;entryDy=0;entryPerimeter=0;" edge="1" parent="sMkJowBJEs8iN2L6A-MO-71" source="sMkJowBJEs8iN2L6A-MO-76" target="sMkJowBJEs8iN2L6A-MO-77">
          <mxGeometry relative="1" as="geometry">
            <Array as="points">
              <mxPoint x="172" y="202.5" />
              <mxPoint x="110" y="202.5" />
            </Array>
          </mxGeometry>
        </mxCell>
        <mxCell id="sMkJowBJEs8iN2L6A-MO-139" value="" style="edgeStyle=orthogonalEdgeStyle;rounded=0;orthogonalLoop=1;jettySize=auto;html=1;" edge="1" parent="sMkJowBJEs8iN2L6A-MO-71" source="sMkJowBJEs8iN2L6A-MO-136" target="sMkJowBJEs8iN2L6A-MO-77">
          <mxGeometry relative="1" as="geometry" />
        </mxCell>
        <mxCell id="sMkJowBJEs8iN2L6A-MO-136" value="Ingress Nginx" style="shape=image;verticalLabelPosition=bottom;labelBackgroundColor=default;verticalAlign=top;aspect=fixed;imageAspect=0;image=https://static-00.iconduck.com/assets.00/nginx-icon-887x1024-ahmvu4vv.png;" vertex="1" parent="sMkJowBJEs8iN2L6A-MO-71">
          <mxGeometry x="89.5" y="55.5" width="42" height="48.49" as="geometry" />
        </mxCell>
        <mxCell id="sMkJowBJEs8iN2L6A-MO-154" value="Auto Scaling group" style="points=[[0,0],[0.25,0],[0.5,0],[0.75,0],[1,0],[1,0.25],[1,0.5],[1,0.75],[1,1],[0.75,1],[0.5,1],[0.25,1],[0,1],[0,0.75],[0,0.5],[0,0.25]];outlineConnect=0;gradientColor=none;html=1;whiteSpace=wrap;fontSize=12;fontStyle=0;container=1;pointerEvents=0;collapsible=0;recursiveResize=0;shape=mxgraph.aws4.groupCenter;grIcon=mxgraph.aws4.group_auto_scaling_group;grStroke=1;strokeColor=#D86613;fillColor=none;verticalAlign=top;align=center;fontColor=#D86613;dashed=1;spacingTop=25;" vertex="1" parent="1">
          <mxGeometry x="607" y="-677" width="270" height="430" as="geometry" />
        </mxCell>
        <mxCell id="sMkJowBJEs8iN2L6A-MO-155" style="edgeStyle=orthogonalEdgeStyle;rounded=0;orthogonalLoop=1;jettySize=auto;html=1;exitX=1;exitY=0.5;exitDx=0;exitDy=0;exitPerimeter=0;" edge="1" parent="sMkJowBJEs8iN2L6A-MO-154" source="sMkJowBJEs8iN2L6A-MO-156">
          <mxGeometry relative="1" as="geometry">
            <mxPoint x="130" y="150" as="targetPoint" />
          </mxGeometry>
        </mxCell>
        <mxCell id="sMkJowBJEs8iN2L6A-MO-156" value="Node" style="sketch=0;points=[[0,0,0],[0.25,0,0],[0.5,0,0],[0.75,0,0],[1,0,0],[0,1,0],[0.25,1,0],[0.5,1,0],[0.75,1,0],[1,1,0],[0,0.25,0],[0,0.5,0],[0,0.75,0],[1,0.25,0],[1,0.5,0],[1,0.75,0]];outlineConnect=0;fontColor=#232F3E;fillColor=#ED7100;strokeColor=#ffffff;dashed=0;verticalLabelPosition=bottom;verticalAlign=top;align=center;html=1;fontSize=12;fontStyle=0;aspect=fixed;shape=mxgraph.aws4.resourceIcon;resIcon=mxgraph.aws4.ec2;" vertex="1" parent="sMkJowBJEs8iN2L6A-MO-154">
          <mxGeometry x="49" y="70" width="59" height="59" as="geometry" />
        </mxCell>
        <mxCell id="sMkJowBJEs8iN2L6A-MO-157" style="edgeStyle=orthogonalEdgeStyle;rounded=0;orthogonalLoop=1;jettySize=auto;html=1;" edge="1" parent="sMkJowBJEs8iN2L6A-MO-154" source="sMkJowBJEs8iN2L6A-MO-158">
          <mxGeometry relative="1" as="geometry">
            <mxPoint x="130" y="150" as="targetPoint" />
          </mxGeometry>
        </mxCell>
        <mxCell id="sMkJowBJEs8iN2L6A-MO-158" value="Node" style="sketch=0;points=[[0,0,0],[0.25,0,0],[0.5,0,0],[0.75,0,0],[1,0,0],[0,1,0],[0.25,1,0],[0.5,1,0],[0.75,1,0],[1,1,0],[0,0.25,0],[0,0.5,0],[0,0.75,0],[1,0.25,0],[1,0.5,0],[1,0.75,0]];outlineConnect=0;fontColor=#232F3E;fillColor=#ED7100;strokeColor=#ffffff;dashed=0;verticalLabelPosition=bottom;verticalAlign=top;align=center;html=1;fontSize=12;fontStyle=0;aspect=fixed;shape=mxgraph.aws4.resourceIcon;resIcon=mxgraph.aws4.ec2;" vertex="1" parent="sMkJowBJEs8iN2L6A-MO-154">
          <mxGeometry x="154.5" y="70" width="59" height="59" as="geometry" />
        </mxCell>
        <mxCell id="sMkJowBJEs8iN2L6A-MO-159" value="" style="container=1;collapsible=0;expand=0;recursiveResize=0;html=1;whiteSpace=wrap;strokeColor=#198038;fillColor=none;strokeWidth=1" vertex="1" parent="1">
          <mxGeometry x="632.5" y="-522.5" width="220" height="265.5" as="geometry" />
        </mxCell>
        <mxCell id="sMkJowBJEs8iN2L6A-MO-160" value="Kubernetes Service" style="shape=rect;fillColor=none;aspect=fixed;resizable=0;labelPosition=right;verticalLabelPosition=middle;align=left;verticalAlign=middle;strokeColor=none;part=1;spacingLeft=5;fontSize=14;" vertex="1" parent="sMkJowBJEs8iN2L6A-MO-159">
          <mxGeometry width="48" height="48" relative="1" as="geometry" />
        </mxCell>
        <mxCell id="sMkJowBJEs8iN2L6A-MO-161" value="" style="fillColor=#198038;shape=mxgraph.ibm_cloud.ibm-cloud--kubernetes-service;strokeColor=none;dashed=0;outlineConnect=0;html=1;labelPosition=center;verticalLabelPosition=bottom;verticalAlign=top;part=1;movable=0;resizable=0;rotatable=0;" vertex="1" parent="sMkJowBJEs8iN2L6A-MO-160">
          <mxGeometry width="24" height="24" relative="1" as="geometry">
            <mxPoint x="12" y="12" as="offset" />
          </mxGeometry>
        </mxCell>
        <mxCell id="sMkJowBJEs8iN2L6A-MO-162" value="" style="shape=rect;fillColor=#198038;aspect=fixed;resizable=0;labelPosition=right;verticalLabelPosition=middle;align=left;verticalAlign=middle;strokeColor=none;part=1;spacingLeft=5;fontSize=14;" vertex="1" parent="sMkJowBJEs8iN2L6A-MO-159">
          <mxGeometry width="4" height="48" relative="1" as="geometry" />
        </mxCell>
        <mxCell id="sMkJowBJEs8iN2L6A-MO-163" value="" style="aspect=fixed;sketch=0;html=1;dashed=0;whitespace=wrap;verticalLabelPosition=bottom;verticalAlign=top;fillColor=#2875E2;strokeColor=#ffffff;points=[[0.005,0.63,0],[0.1,0.2,0],[0.9,0.2,0],[0.5,0,0],[0.995,0.63,0],[0.72,0.99,0],[0.5,1,0],[0.28,0.99,0]];shape=mxgraph.kubernetes.icon2;kubernetesLabel=1;prIcon=pod" vertex="1" parent="sMkJowBJEs8iN2L6A-MO-159">
          <mxGeometry x="25" y="212.5" width="50" height="48" as="geometry" />
        </mxCell>
        <mxCell id="sMkJowBJEs8iN2L6A-MO-164" value="" style="aspect=fixed;sketch=0;html=1;dashed=0;whitespace=wrap;verticalLabelPosition=bottom;verticalAlign=top;fillColor=#2875E2;strokeColor=#ffffff;points=[[0.005,0.63,0],[0.1,0.2,0],[0.9,0.2,0],[0.5,0,0],[0.995,0.63,0],[0.72,0.99,0],[0.5,1,0],[0.28,0.99,0]];shape=mxgraph.kubernetes.icon2;kubernetesLabel=1;prIcon=pod" vertex="1" parent="sMkJowBJEs8iN2L6A-MO-159">
          <mxGeometry x="85.5" y="212.5" width="50" height="48" as="geometry" />
        </mxCell>
        <mxCell id="sMkJowBJEs8iN2L6A-MO-165" value="" style="aspect=fixed;sketch=0;html=1;dashed=0;whitespace=wrap;verticalLabelPosition=bottom;verticalAlign=top;fillColor=#2875E2;strokeColor=#ffffff;points=[[0.005,0.63,0],[0.1,0.2,0],[0.9,0.2,0],[0.5,0,0],[0.995,0.63,0],[0.72,0.99,0],[0.5,1,0],[0.28,0.99,0]];shape=mxgraph.kubernetes.icon2;kubernetesLabel=1;prIcon=pod" vertex="1" parent="sMkJowBJEs8iN2L6A-MO-159">
          <mxGeometry x="147" y="212.5" width="50" height="48" as="geometry" />
        </mxCell>
        <mxCell id="sMkJowBJEs8iN2L6A-MO-166" value="" style="aspect=fixed;sketch=0;html=1;dashed=0;whitespace=wrap;verticalLabelPosition=bottom;verticalAlign=top;fillColor=#2875E2;strokeColor=#ffffff;points=[[0.005,0.63,0],[0.1,0.2,0],[0.9,0.2,0],[0.5,0,0],[0.995,0.63,0],[0.72,0.99,0],[0.5,1,0],[0.28,0.99,0]];shape=mxgraph.kubernetes.icon2;kubernetesLabel=1;prIcon=svc" vertex="1" parent="sMkJowBJEs8iN2L6A-MO-159">
          <mxGeometry x="85" y="132.5" width="50" height="48" as="geometry" />
        </mxCell>
        <mxCell id="sMkJowBJEs8iN2L6A-MO-167" style="edgeStyle=orthogonalEdgeStyle;rounded=0;orthogonalLoop=1;jettySize=auto;html=1;exitX=0.5;exitY=0;exitDx=0;exitDy=0;exitPerimeter=0;entryX=0.5;entryY=1;entryDx=0;entryDy=0;entryPerimeter=0;" edge="1" parent="sMkJowBJEs8iN2L6A-MO-159">
          <mxGeometry relative="1" as="geometry">
            <mxPoint x="110.50000000000011" y="212.5" as="sourcePoint" />
            <mxPoint x="110" y="180.5" as="targetPoint" />
          </mxGeometry>
        </mxCell>
        <mxCell id="sMkJowBJEs8iN2L6A-MO-168" style="edgeStyle=orthogonalEdgeStyle;rounded=0;orthogonalLoop=1;jettySize=auto;html=1;exitX=0.5;exitY=0;exitDx=0;exitDy=0;exitPerimeter=0;entryX=0.5;entryY=1;entryDx=0;entryDy=0;entryPerimeter=0;" edge="1" parent="sMkJowBJEs8iN2L6A-MO-159" source="sMkJowBJEs8iN2L6A-MO-163" target="sMkJowBJEs8iN2L6A-MO-166">
          <mxGeometry relative="1" as="geometry">
            <Array as="points">
              <mxPoint x="50" y="202.5" />
              <mxPoint x="110" y="202.5" />
            </Array>
          </mxGeometry>
        </mxCell>
        <mxCell id="sMkJowBJEs8iN2L6A-MO-169" style="edgeStyle=orthogonalEdgeStyle;rounded=0;orthogonalLoop=1;jettySize=auto;html=1;exitX=0.5;exitY=0;exitDx=0;exitDy=0;exitPerimeter=0;entryX=0.5;entryY=1;entryDx=0;entryDy=0;entryPerimeter=0;" edge="1" parent="sMkJowBJEs8iN2L6A-MO-159" source="sMkJowBJEs8iN2L6A-MO-165" target="sMkJowBJEs8iN2L6A-MO-166">
          <mxGeometry relative="1" as="geometry">
            <Array as="points">
              <mxPoint x="172" y="202.5" />
              <mxPoint x="110" y="202.5" />
            </Array>
          </mxGeometry>
        </mxCell>
        <mxCell id="sMkJowBJEs8iN2L6A-MO-170" value="" style="edgeStyle=orthogonalEdgeStyle;rounded=0;orthogonalLoop=1;jettySize=auto;html=1;" edge="1" parent="sMkJowBJEs8iN2L6A-MO-159" source="sMkJowBJEs8iN2L6A-MO-171" target="sMkJowBJEs8iN2L6A-MO-166">
          <mxGeometry relative="1" as="geometry" />
        </mxCell>
        <mxCell id="sMkJowBJEs8iN2L6A-MO-176" style="edgeStyle=orthogonalEdgeStyle;rounded=0;orthogonalLoop=1;jettySize=auto;html=1;" edge="1" parent="sMkJowBJEs8iN2L6A-MO-159" source="sMkJowBJEs8iN2L6A-MO-171">
          <mxGeometry relative="1" as="geometry">
            <mxPoint x="-85.49999999999977" y="-294.5" as="targetPoint" />
          </mxGeometry>
        </mxCell>
        <mxCell id="sMkJowBJEs8iN2L6A-MO-171" value="Ingress Nginx" style="shape=image;verticalLabelPosition=bottom;labelBackgroundColor=default;verticalAlign=top;aspect=fixed;imageAspect=0;image=https://static-00.iconduck.com/assets.00/nginx-icon-887x1024-ahmvu4vv.png;" vertex="1" parent="sMkJowBJEs8iN2L6A-MO-159">
          <mxGeometry x="89.5" y="55.5" width="42" height="48.49" as="geometry" />
        </mxCell>
        <mxCell id="sMkJowBJEs8iN2L6A-MO-174" value="" style="group" vertex="1" connectable="0" parent="1">
          <mxGeometry x="427" y="-927" width="240" height="150" as="geometry" />
        </mxCell>
        <mxCell id="sMkJowBJEs8iN2L6A-MO-172" value="Public subnet" style="points=[[0,0],[0.25,0],[0.5,0],[0.75,0],[1,0],[1,0.25],[1,0.5],[1,0.75],[1,1],[0.75,1],[0.5,1],[0.25,1],[0,1],[0,0.75],[0,0.5],[0,0.25]];outlineConnect=0;gradientColor=none;html=1;whiteSpace=wrap;fontSize=12;fontStyle=0;container=1;pointerEvents=0;collapsible=0;recursiveResize=0;shape=mxgraph.aws4.group;grIcon=mxgraph.aws4.group_security_group;grStroke=0;strokeColor=#7AA116;fillColor=#F2F6E8;verticalAlign=top;align=left;spacingLeft=30;fontColor=#248814;dashed=0;" vertex="1" parent="sMkJowBJEs8iN2L6A-MO-174">
          <mxGeometry width="240" height="150" as="geometry" />
        </mxCell>
        <mxCell id="sMkJowBJEs8iN2L6A-MO-173" value="Network Load Balancer" style="outlineConnect=0;dashed=0;verticalLabelPosition=bottom;verticalAlign=top;align=center;html=1;shape=mxgraph.aws3.classic_load_balancer;fillColor=#F58534;gradientColor=none;" vertex="1" parent="sMkJowBJEs8iN2L6A-MO-174">
          <mxGeometry x="85.5" y="34" width="69" height="72" as="geometry" />
        </mxCell>
        <mxCell id="sMkJowBJEs8iN2L6A-MO-175" style="edgeStyle=orthogonalEdgeStyle;rounded=0;orthogonalLoop=1;jettySize=auto;html=1;" edge="1" parent="1" source="sMkJowBJEs8iN2L6A-MO-136" target="sMkJowBJEs8iN2L6A-MO-173">
          <mxGeometry relative="1" as="geometry" />
        </mxCell>
        <mxCell id="sMkJowBJEs8iN2L6A-MO-177" value="Certificate Manager" style="sketch=0;points=[[0,0,0],[0.25,0,0],[0.5,0,0],[0.75,0,0],[1,0,0],[0,1,0],[0.25,1,0],[0.5,1,0],[0.75,1,0],[1,1,0],[0,0.25,0],[0,0.5,0],[0,0.75,0],[1,0.25,0],[1,0.5,0],[1,0.75,0]];outlineConnect=0;fontColor=#232F3E;fillColor=#DD344C;strokeColor=#ffffff;dashed=0;verticalLabelPosition=bottom;verticalAlign=top;align=center;html=1;fontSize=12;fontStyle=0;aspect=fixed;shape=mxgraph.aws4.resourceIcon;resIcon=mxgraph.aws4.certificate_manager_3;" vertex="1" parent="1">
          <mxGeometry x="797" y="-891" width="68" height="68" as="geometry" />
        </mxCell>
        <mxCell id="sMkJowBJEs8iN2L6A-MO-184" style="edgeStyle=orthogonalEdgeStyle;rounded=0;orthogonalLoop=1;jettySize=auto;html=1;exitX=1;exitY=0.5;exitDx=0;exitDy=0;exitPerimeter=0;entryX=0;entryY=0.5;entryDx=0;entryDy=0;entryPerimeter=0;" edge="1" parent="1" source="sMkJowBJEs8iN2L6A-MO-173" target="sMkJowBJEs8iN2L6A-MO-177">
          <mxGeometry relative="1" as="geometry" />
        </mxCell>
        <mxCell id="sMkJowBJEs8iN2L6A-MO-185" value="" style="group" vertex="1" connectable="0" parent="1">
          <mxGeometry x="267" y="-1157" width="91.47000000000003" height="120" as="geometry" />
        </mxCell>
        <mxCell id="sMkJowBJEs8iN2L6A-MO-182" value="" style="points=[];aspect=fixed;html=1;align=center;shadow=0;dashed=0;fillColor=#FF6A00;strokeColor=none;shape=mxgraph.alibaba_cloud.dns_domain_name_system;" vertex="1" parent="sMkJowBJEs8iN2L6A-MO-185">
          <mxGeometry width="91.47" height="90" as="geometry" />
        </mxCell>
        <mxCell id="sMkJowBJEs8iN2L6A-MO-183" value="&lt;span style=&quot;text-wrap-mode: nowrap;&quot;&gt;vpro.jupter.xyz&lt;/span&gt;" style="text;html=1;align=center;verticalAlign=middle;whiteSpace=wrap;rounded=0;fontSize=18;" vertex="1" parent="sMkJowBJEs8iN2L6A-MO-185">
          <mxGeometry x="15.730000000000018" y="90" width="60" height="30" as="geometry" />
        </mxCell>
        <mxCell id="sMkJowBJEs8iN2L6A-MO-187" style="edgeStyle=orthogonalEdgeStyle;rounded=0;orthogonalLoop=1;jettySize=auto;html=1;exitX=0;exitY=0.5;exitDx=0;exitDy=0;exitPerimeter=0;entryX=1.004;entryY=0.487;entryDx=0;entryDy=0;entryPerimeter=0;" edge="1" parent="1" source="sMkJowBJEs8iN2L6A-MO-173" target="sMkJowBJEs8iN2L6A-MO-182">
          <mxGeometry relative="1" as="geometry">
            <Array as="points">
              <mxPoint x="417" y="-857" />
              <mxPoint x="417" y="-1113" />
            </Array>
          </mxGeometry>
        </mxCell>
        <mxCell id="sMkJowBJEs8iN2L6A-MO-188" value="" style="group" vertex="1" connectable="0" parent="1">
          <mxGeometry x="127" y="-697" width="820" height="480" as="geometry" />
        </mxCell>
        <mxCell id="sMkJowBJEs8iN2L6A-MO-58" value="&lt;div&gt;&lt;br&gt;&lt;/div&gt;" style="points=[[0,0],[0.25,0],[0.5,0],[0.75,0],[1,0],[1,0.25],[1,0.5],[1,0.75],[1,1],[0.75,1],[0.5,1],[0.25,1],[0,1],[0,0.75],[0,0.5],[0,0.25]];outlineConnect=0;gradientColor=none;html=1;whiteSpace=wrap;fontSize=12;fontStyle=0;container=0;pointerEvents=0;collapsible=0;recursiveResize=0;shape=mxgraph.aws4.group;grIcon=mxgraph.aws4.group_ec2_instance_contents;strokeColor=#D86613;fillColor=none;verticalAlign=top;align=left;spacingLeft=30;fontColor=#D86613;dashed=0;movable=1;resizable=1;rotatable=1;deletable=1;editable=1;locked=0;connectable=1;" vertex="1" parent="sMkJowBJEs8iN2L6A-MO-188">
          <mxGeometry width="819.9999999999999" height="480.00000000000006" as="geometry" />
        </mxCell>
        <mxCell id="sMkJowBJEs8iN2L6A-MO-59" value="EKS Control Plane" style="sketch=0;points=[[0,0,0],[0.25,0,0],[0.5,0,0],[0.75,0,0],[1,0,0],[0,1,0],[0.25,1,0],[0.5,1,0],[0.75,1,0],[1,1,0],[0,0.25,0],[0,0.5,0],[0,0.75,0],[1,0.25,0],[1,0.5,0],[1,0.75,0]];outlineConnect=0;fontColor=#232F3E;fillColor=#ED7100;strokeColor=#ffffff;dashed=0;verticalLabelPosition=bottom;verticalAlign=top;align=center;html=1;fontSize=12;fontStyle=0;aspect=fixed;shape=mxgraph.aws4.resourceIcon;resIcon=mxgraph.aws4.eks;movable=1;resizable=1;rotatable=1;deletable=1;editable=1;locked=0;connectable=1;" vertex="1" parent="sMkJowBJEs8iN2L6A-MO-188">
          <mxGeometry width="32.54237288135593" height="32.54237288135593" as="geometry" />
        </mxCell>
      </root>
    </mxGraphModel>
  </diagram>
</mxfile>
